<?xml version="1.0" encoding="UTF-8"?>
<svg width="512" height="512" viewBox="0 0 512 512" xmlns="http://www.w3.org/2000/svg">
  <!-- Background circle with gradient -->
  <defs>
    <linearGradient id="bgGradient" x1="0%" y1="0%" x2="100%" y2="100%">
      <stop offset="0%" style="stop-color:#4CAF50;stop-opacity:1" />
      <stop offset="100%" style="stop-color:#2E7D32;stop-opacity:1" />
    </linearGradient>
    <linearGradient id="lineGradient" x1="0%" y1="100%" x2="100%" y2="0%">
      <stop offset="0%" style="stop-color:#FF6B35;stop-opacity:1" />
      <stop offset="100%" style="stop-color:#FFD23F;stop-opacity:1" />
    </linearGradient>
  </defs>
  
  <!-- Background -->
  <circle cx="256" cy="256" r="240" fill="url(#bgGradient)" stroke="#1B5E20" stroke-width="8"/>
  
  <!-- Grid lines for chart feel -->
  <g stroke="#66BB6A" stroke-width="1" opacity="0.3">
    <line x1="120" y1="380" x2="390" y2="380" />
    <line x1="120" y1="320" x2="390" y2="320" />
    <line x1="120" y1="260" x2="390" y2="260" />
    <line x1="120" y1="200" x2="390" y2="200" />
    <line x1="120" y1="140" x2="390" y2="140" />
    
    <line x1="120" y1="380" x2="120" y2="140" />
    <line x1="180" y1="380" x2="180" y2="140" />
    <line x1="240" y1="380" x2="240" y2="140" />
    <line x1="300" y1="380" x2="300" y2="140" />
    <line x1="360" y1="380" x2="360" y2="140" />
    <line x1="390" y1="380" x2="390" y2="140" />
  </g>
  
  <!-- Axes -->
  <g stroke="#FFFFFF" stroke-width="3">
    <line x1="120" y1="380" x2="390" y2="380" />
    <line x1="120" y1="380" x2="120" y2="140" />
  </g>
  
  <!-- Exponential curve -->
  <path d="M 120 380 Q 140 375 160 365 Q 180 350 200 330 Q 220 300 240 260 Q 260 210 280 170 Q 300 130 320 100 Q 340 80 360 70 Q 380 65 390 64" 
        stroke="url(#lineGradient)" 
        stroke-width="6" 
        fill="none" 
        stroke-linecap="round"/>
  
  <!-- Data points -->
  <g fill="#FFD23F" stroke="#FF6B35" stroke-width="2">
    <circle cx="120" cy="380" r="4"/>
    <circle cx="160" cy="365" r="4"/>
    <circle cx="200" cy="330" r="4"/>
    <circle cx="240" cy="260" r="4"/>
    <circle cx="280" cy="170" r="4"/>
    <circle cx="320" cy="100" r="4"/>
    <circle cx="360" cy="70" r="4"/>
    <circle cx="390" cy="64" r="5"/>
  </g>
  
  <!-- Arrow at the end -->
  <polygon points="385,54 395,64 385,74 390,64" fill="#FFD23F" stroke="#FF6B35" stroke-width="2"/>
  
  <!-- Small habit tracking dots at bottom -->
  <g fill="#A5D6A7" opacity="0.7">
    <circle cx="140" cy="420" r="3"/>
    <circle cx="160" cy="420" r="3"/>
    <circle cx="180" cy="420" r="3"/>
    <circle cx="200" cy="420" r="3"/>
    <circle cx="220" cy="420" r="3"/>
    <circle cx="240" cy="420" r="3"/>
    <circle cx="260" cy="420" r="3"/>
    <circle cx="280" cy="420" r="3"/>
    <circle cx="300" cy="420" r="3"/>
    <circle cx="320" cy="420" r="3"/>
    <circle cx="340" cy="420" r="3"/>
    <circle cx="360" cy="420" r="3"/>
  </g>
  
  <!-- Title text -->
  <text x="256" y="480" text-anchor="middle" font-family="Arial, sans-serif" font-size="24" font-weight="bold" fill="#FFFFFF">HABITS</text>
</svg>